0: T120 @0 L240 $ o5f#&f#&f#&f#&f#&f#&f#&f#&f#&f#&f#&f#&f#&f#&f#&f#&f#&f#&f#&f#&f#&f#&f#&f#&f#&f#&f#&f#&f#&f#&f#&f#&f#&f#&f#&f#&f#&f#&f#&f#&f#&f#&f#&f#&f#&f#&f#&f#&f#&f#&f#&f#&f#&f#&f#&f#&f#&f#&f#&f#&f#&f#&f#&f#&f#&f#&f#&f#&f#&f#&f#&f#&f#&f#&f#&f#&f#&f#&f#&f#&f#&f#&f#&f#&f#&f#&f#&f#&f#&f#&f#&f#&f#&f#&f#&f#&f#&f#&f#&f#&f#&f#&f#&f#&f#&f#&f#&f#&f#&f#&f#&f#&f#&f#&f#&f#&f#&f#&f#&f#&f#&f#&f#&f#&f#&f#&f#&f#&f#&f#&f#&f#&f#&f#&f#&f#&f#&f#&f#&f#&f#&f#&f#&f#&f#&f#&f#&f#&f#&f#&f#&f#&f#&f#&f#&f#&f#&f#&f#&f#&f#&f#&f#&f#&f#&f#&f#&f#&f#&f#&f#&f#&f#&f#&f#&f#&f#&f#&f#&f#&f#&f#&f#&f#&f#&f#&f#&f#ro4f#&f#&f#&f#&f#&f#&f#&f#&f#&f#&f#&f#&f#&f#&f#&f#&f#&f#&f#&f#&f#&f#&f#&f#&f#&f#&f#&f#&f#&f#&f#&f#&f#&f#&f#&f#r&r&r&r&r&r&r&r&r&r&r&r&r&r&r&r&r&r&r&r&r&r&r&r&r&r&r&r&r&r&r&r&r&r&r&r&r&r&r&r&r&r&r&r&r&r&r&r&r&r&r&r&r&r&r&r&r&r&r&r&r&r&r&r&r&r&r&r&r&r&r&re&e&e&e&e&e&e&e&e&e&e&e&e&e&e&e&e&e&e&e&e&e&e&e&e&e&eo5c#&c#&c#&c#&c#&c#&c#&c#&c#&c#&c#&c#&c#&c#&c#&c#&c#&c#&c#&c#&c#&c#&c#&c#&c#&c#&c#o4b&b&b&b&b&b&b&b&b&b&b&b&b&b&b&b&b&b&b&b&b&b&b&b&b&b&ba&a&a&a&a&a&a&a&a&a&a&a&a&a&a&a&a&a&a&a&a&a&a&a&a&a&ao5c#&c#&c#&c#&c#&c#&c#&c#&c#&c#&c#&c#&c#&c#&c#&c#&c#&c#&c#&c#&c#&c#&c#&c#&c#&c#&c#o4f&f&f&f&f&f&f&f&f&f&f&f&f&f&f&f&f&f&f&f&f&f&f&f&f&f&fo5d&d&d&d&d&d&d&d&d&d&d&d&d&d&d&d&d&d&d&d&d&d&d&d&d&d&df&f&f&f&f&f&f&f&f&f&f&f&f&f&f&f&f&f&f&f&f&f&f&f&f&f&f&f&f&f&f&f&f&f&f&f&f&f&f&f&f&f&f&f&f&f&f&f&f&f&f&f&f&f&f&f&f&f&f&f&f&f&f&f&f&f&f&f&f&f&f&f&f&f&f&f&f&f&f&f&f&f&f&f&f&f&f&f&f&f&f&f&f&f&f&f&f&f&f&f&f&f&f&f&f&f&f&f&f&f&f&f&f&f&f&f&f&f&f&f&f&f&f&f&f&f&f&f&f&f&f&f&f&f&f&f&f&f&f&f&f&f&f&f&f&f&f&f&f&f&fr&r&r&r&r&r&r&r&r&r&rg&g&g&g&g&g&g&g&g&g&g&g&g&g&g&g&g&g&g&g&g&g&g&g&g&g&g&g&g&g&g&g&g&g&g&g&g&g&g&g&g&g&g&g&g&g&g&g&g&g&g&g&g&go4g&g&g&g&g&g&g&g&g&g&g&g&g&g&g&g&g&g&g&g&g&g&g&g&g&g&g&g&g&g&g&g&g&g&g&g&g&g&g&g&g&g&g&g&g&g&g&g&g&g&g&g&g&go5e&e&e&e&e&e&e&e&e&e&e&e&e&e&e&e&e&e&e&e&e&e&e&e&e&e&e&e&e&e&e&e&e&e&e&e&e&e&e&e&e&e&e&e&e&e&e&e&e&e&e&e&e&e&e&e&e&e&e&e&e&e&e&e&e&e&e&e&e&e&e&e&e&e&e&e&e&e&e&ero4e&e&e&e&e&e&e&e&e&e&e&e&e&e&e&e&e&e&e&e&e&e&e&e&e&e&eo5f#&f#&f#&f#&f#&f#&f#&f#&f#&f#&f#&f#&f#&f#&f#&f#&f#&f#&f#&f#&f#&f#&f#&f#&f#&f#&f#&f#&f#&f#&f#&f#&f#&f#&f#&f#&f#&f#&f#&f#&f#&f#&f#&f#&f#&f#&f#&f#&f#&f#&f#&f#&f#&f#&f#&f#&f#&f#&f#&f#&f#&f#&f#&f#&f#&f#&f#&f#&f#&f#&f#&f#&f#&f#&f#&f#&f#&f#&f#&f#&f#&f#&f#&f#&f#&f#&f#&f#&f#&f#&f#&f#&f#&f#&f#&f#&f#&f#&f#&f#&f#&f#&f#&f#&f#&f#&f#&f#&f#&f#&f#&f#&f#&f#&f#&f#&f#&f#&f#&f#&f#&f#&f#&f#&f#&f#&f#&f#&f#&f#&f#&f#&f#&f#&f#&f#&f#&f#&f#&f#&f#&f#&f#&f#&f#&f#&f#&f#&f#&f#&f#&f#&f#&f#&f#&f#&f#&f#&f#&f#&f#&f#&f#&f#&f#&f#&f#&f#&f#&f#&f#&f#&f#&f#&f#&f#&f#&f#&f#&f#&f#&f#&f#&f#&f#&f#&f#&f#ro4f#&f#&f#&f#&f#&f#&f#&f#&f#&f#&f#&f#&f#&f#&f#&f#&f#&f#&f#&f#&f#&f#&f#&f#&f#&f#&f#&f#&f#&f#&f#&f#&f#&f#&f#&f#r&r&r&r&r&r&r&r&r&r&r&r&r&r&r&r&r&r&r&r&r&r&r&r&r&r&r&r&r&r&r&r&r&r&r&r&r&r&r&r&r&r&r&r&r&r&r&r&r&r&r&r&r&r&r&r&r&r&r&r&r&r&r&r&r&r&r&r&r&r&r&re&e&e&e&e&e&e&e&e&e&e&e&e&e&e&e&e&e&e&e&e&e&e&e&e&e&eo5c#&c#&c#&c#&c#&c#&c#&c#&c#&c#&c#&c#&c#&c#&c#&c#&c#&c#&c#&c#&c#&c#&c#&c#&c#&c#&c#o4b&b&b&b&b&b&b&b&b&b&b&b&b&b&b&b&b&b&b&b&b&b&b&b&b&b&ba&a&a&a&a&a&a&a&a&a&a&a&a&a&a&a&a&a&a&a&a&a&a&a&a&a&ao5c#&c#&c#&c#&c#&c#&c#&c#&c#&c#&c#&c#&c#&c#&c#&c#&c#&c#&c#&c#&c#&c#&c#&c#&c#&c#&c#f&f&f&f&f&f&f&f&f&f&f&f&f&f&f&f&f&f&f&f&f&f&f&f&f&f&f&f&f&f&f&f&f&f&f&f&f&f&f&fd&d&d&d&d&d&d&d&d&d&d&d&d&d&d&d&d&d&d&d&d&d&d&d&d&d&d&d&d&d&d&d&d&d&d&d&d&d&d&d&d&d&d&d&d&d&d&d&d&d&d&d&d&d&d&d&d&d&d&d&d&d&d&d&d&d&d&do4e&e&e&e&e&e&e&e&e&e&e&e&e&e&e&e&e&e&e&e&e&e&e&e&e&e&e&e&e&e&e&e&e&e&e&e&e&e&e&e&e&e&e&e&e&e&e&e&e&e&e&e&e&e&e&e&e&e&e&e&e&e&e&e&e&e&e&e&e&e&e&e&e&e&e&e&e&e&e&e&e&e&e&e&e&e&e&e&e&e&e&e&e&e&e&e&e&e&e&e&e&e&e&er&r&r&rf#&f#&f#&f#&f#&f#&f#&f#&f#&f#&f#&f#&f#&f#&f#&f#&f#&f#&f#&f#&f#&f#&f#&f#&f#&f#&f#g&g&g&g&g&g&g&g&g&g&g&g&g&g&g&g&g&g&g&g&g&g&g&g&g&g&gf#&f#&f#&f#&f#&f#&f#&f#&f#&f#&f#&f#&f#&f#&f#&f#&f#&f#&f#&f#&f#&f#&f#&f#&f#&f#&f#&f#&f#&f#&f#&f#&f#&f#&f#&f#&f#&f#&f#&f#&f#&f#&f#&f#&f#&f#&f#&f#&f#&f#&f#&f#&f#&f#&f#&f#&f#&f#&f#&f#&f#&f#&f#&f#&f#&f#&f#&f#&f#&f#&f#&f#&f#&f#&f#&f#&f#&f#&f#&f#&f#&f#&f#&f#&f#&f#&f#&f#&f#&f#&f#&f#&f#&f#&f#&f#&f#&f#&f#&f#&f#&f#&f#&f#&f#&f#&f#&f#&f#&f#&f#&f#&f#&f#&f#&f#&f#&f#&f#&f#&f#&f#&f#&f#&f#&f#&f#&f#&f#&f#&f#&f#&f#&f#&f#&f#&f#&f#&f#&f#&f#&f#&f#&f#&f#&f#&f#&f#&f#&f#&f#r&r&r&r&r&r&r&r&r&r&r
1: T120 @2 L240 $ o3d&d&d&d&d&d&d&d&d&dr&r&r&r&r&r&r&r&r&r&r&r&r&r&r&r&ro4d&d&d&d&d&d&d&d&d&dr&r&rd&d&d&d&d&d&d&d&d&dr&r&r&ro3d&d&d&d&d&d&d&d&d&dr&r&r&r&r&r&r&r&r&r&r&r&r&r&r&r&ro4d&d&d&d&d&d&d&d&d&dr&r&rd&d&d&d&d&d&d&d&d&dr&r&r&ro3d&d&d&d&d&d&d&d&d&dr&r&r&r&r&r&r&r&r&r&r&r&r&r&r&r&ro4d&d&d&d&d&d&d&d&d&dr&r&rd&d&d&d&d&d&d&d&d&dr&r&r&ro3d&d&d&d&d&d&d&d&d&dr&r&r&r&r&r&r&r&r&r&r&r&r&r&r&r&ro4d&d&d&d&d&d&d&d&d&dr&r&rd&d&d&d&d&d&d&d&d&dr&r&r&ro2a&a&a&a&a&a&a&a&a&ar&r&r&r&r&r&r&r&r&r&r&r&r&r&r&r&ro3a&a&a&a&a&a&a&a&a&ar&r&ra&a&a&a&a&a&a&a&a&ar&r&r&ro2a&a&a&a&a&a&a&a&a&ar&r&r&r&r&r&r&r&r&r&r&r&r&r&r&r&ro3a&a&a&a&a&a&a&a&a&ar&r&ra&a&a&a&a&a&a&a&a&ar&r&r&ro2a&a&a&a&a&a&a&a&a&ar&r&r&r&r&r&r&r&r&r&r&r&r&r&r&r&ro3a&a&a&a&a&a&a&a&a&ar&r&ra&a&a&a&a&a&a&a&a&ar&r&r&ro2a&a&a&a&a&a&a&a&a&ar&r&r&r&r&r&r&r&r&r&r&r&r&r&r&r&ro3a&a&a&a&a&a&a&a&a&ar&r&ra&a&a&a&a&a&a&a&a&ar&r&r&ro2a#&a#&a#&a#&a#&a#&a#&a#&a#&a#r&r&r&r&r&r&r&r&r&r&r&r&r&r&r&r&ro3a#&a#&a#&a#&a#&a#&a#&a#&a#&a#r&r&ra#&a#&a#&a#&a#&a#&a#&a#&a#&a#r&r&r&ro2a#&a#&a#&a#&a#&a#&a#&a#&a#&a#r&r&r&r&r&r&r&r&r&r&r&r&r&r&r&r&ro3a#&a#&a#&a#&a#&a#&a#&a#&a#&a#r&r&ra#&a#&a#&a#&a#&a#&a#&a#&a#&a#r&r&r&ro2a#&a#&a#&a#&a#&a#&a#&a#&a#&a#r&r&r&r&r&r&r&r&r&r&r&r&r&r&r&r&ro3a#&a#&a#&a#&a#&a#&a#&a#&a#&a#r&r&ra#&a#&a#&a#&a#&a#&a#&a#&a#&a#r&r&r&ro2a#&a#&a#&a#&a#&a#&a#&a#&a#&a#r&r&r&r&r&r&r&r&r&r&r&r&r&r&r&r&ro3a#&a#&a#&a#&a#&a#&a#&a#&a#&a#r&r&ra#&a#&a#&a#&a#&a#&a#&a#&a#&a#r&r&r&rc&c&c&c&c&c&c&c&c&cr&r&r&r&r&r&r&r&r&r&r&r&r&r&r&r&ro4c&c&c&c&c&c&c&c&c&cr&r&rc&c&c&c&c&c&c&c&c&cr&r&r&ro3c&c&c&c&c&c&c&c&c&cr&r&r&r&r&r&r&r&r&r&r&r&r&r&r&r&ro4c&c&c&c&c&c&c&c&c&cr&r&rc&c&c&c&c&c&c&c&c&cr&r&r&ro3c&c&c&c&c&c&c&c&c&cr&r&r&r&r&r&r&r&r&r&r&r&r&r&r&r&ro4c&c&c&c&c&c&c&c&c&cr&r&rc&c&c&c&c&c&c&c&c&cr&r&r&ro3c&c&c&c&c&c&c&c&c&cr&r&r&r&r&r&r&r&r&r&r&r&r&r&r&r&ro4c&c&c&c&c&c&c&c&c&cr&r&rc&c&c&c&c&c&c&c&c&cr&r&r&ro3d&d&d&d&d&d&d&d&d&dr&r&r&r&r&r&r&r&r&r&r&r&r&r&r&r&ro4d&d&d&d&d&d&d&d&d&dr&r&rd&d&d&d&d&d&d&d&d&dr&r&r&ro3d&d&d&d&d&d&d&d&d&dr&r&r&r&r&r&r&r&r&r&r&r&r&r&r&r&ro4d&d&d&d&d&d&d&d&d&dr&r&rd&d&d&d&d&d&d&d&d&dr&r&r&ro3d&d&d&d&d&d&d&d&d&dr&r&r&r&r&r&r&r&r&r&r&r&r&r&r&r&ro4d&d&d&d&d&d&d&d&d&dr&r&rd&d&d&d&d&d&d&d&d&dr&r&r&ro3d&d&d&d&d&d&d&d&d&dr&r&r&r&r&r&r&r&r&r&r&r&r&r&r&r&ro4d&d&d&d&d&d&d&d&d&dr&r&rd&d&d&d&d&d&d&d&d&dr&r&r&ro2a&a&a&a&a&a&a&a&a&ar&r&r&r&r&r&r&r&r&r&r&r&r&r&r&r&ro3a&a&a&a&a&a&a&a&a&ar&r&ra&a&a&a&a&a&a&a&a&ar&r&r&ro2a&a&a&a&a&a&a&a&a&ar&r&r&r&r&r&r&r&r&r&r&r&r&r&r&r&ro3a&a&a&a&a&a&a&a&a&ar&r&ra&a&a&a&a&a&a&a&a&ar&r&r&ro2a&a&a&a&a&a&a&a&a&ar&r&r&r&r&r&r&r&r&r&r&r&r&r&r&r&ro3a&a&a&a&a&a&a&a&a&ar&r&ra&a&a&a&a&a&a&a&a&ar&r&r&ro2a&a&a&a&a&a&a&a&a&ar&r&r&r&r&r&r&r&r&r&r&r&r&r&r&r&ro3a&a&a&a&a&a&a&a&a&ar&r&ra&a&a&a&a&a&a&a&a&ar&r&r&ro2a#&a#&a#&a#&a#&a#&a#&a#&a#&a#r&r&r&r&r&r&r&r&r&r&r&r&r&r&r&r&ro3a#&a#&a#&a#&a#&a#&a#&a#&a#&a#r&r&ra#&a#&a#&a#&a#&a#&a#&a#&a#&a#r&r&r&ro2a#&a#&a#&a#&a#&a#&a#&a#&a#&a#r&r&r&r&r&r&r&r&r&r&r&r&r&r&r&r&ro3a#&a#&a#&a#&a#&a#&a#&a#&a#&a#r&r&ra#&a#&a#&a#&a#&a#&a#&a#&a#&a#r&r&r&rc&c&c&c&c&c&c&c&c&cr&r&r&r&r&r&r&r&r&r&r&r&r&r&r&r&ro4c&c&c&c&c&c&c&c&c&cr&r&rc&c&c&c&c&c&c&c&c&cr&r&r&ro3c&c&c&c&c&c&c&c&c&cr&r&r&r&r&r&r&r&r&r&r&r&r&r&r&r&ro4c&c&c&c&c&c&c&c&c&cr&r&rc&c&c&c&c&c&c&c&c&cr&r&r&ro3d#&d#&d#&d#&d#&d#&d#&d#&d#&d#r&r&r&r&r&r&r&r&r&r&r&r&r&r&r&r&ro4d#&d#&d#&d#&d#&d#&d#&d#&d#&d#r&r&rd#&d#&d#&d#&d#&d#&d#&d#&d#&d#r&r&r&ro3d#&d#&d#&d#&d#&d#&d#&d#&d#&d#r&r&r&r&r&r&r&r&r&r&r&r&r&r&r&r&ro4d#&d#&d#&d#&d#&d#&d#&d#&d#&d#r&r&rd#&d#&d#&d#&d#&d#&d#&d#&d#&d#r&r&r&ro3d&d&d&d&d&d&d&d&d&dr&r&r&r&r&r&r&r&r&r&r&r&r&r&r&r&ro4d&d&d&d&d&d&d&d&d&dr&r&rd&d&d&d&d&d&d&d&d&dr&r&r&ro3d&d&d&d&d&d&d&d&d&d&d&d&d&d&d&d&d&d&d&dr&r&r&r&r&r&ro4d&d&d&d&d&d&d&d&d&d&d&d&d&d&d&d&d&d&d&dr&r&r&r&r&r&r
2: T120 @2 L240 $ o6a#&a#&a#&a#&a#&a#&a#&a#&a#&a#&a#&a#&a#&a#&a#&a#&a#&a#&a#&a#&a#&a#&a#&a#&a#&a#&a#&a#&a#&a#&a#&a#&a#&a#&a#&a#&a#&a#&a#&a#&a#&a#&a#&a#&a#&a#&a#&a#&a#&a#&a#&a#&a#&a#&a#&a#&a#&a#&a#&a#&a#&a#&a#&a#&a#&a#&a#&a#&a#&a#&a#&a#&a#&a#&a#&a#&a#&a#&a#&a#&a#&a#&a#&a#&a#&a#&a#&a#&a#&a#&a#&a#&a#&a#&a#&a#&a#&a#&a#&a#&a#&a#&a#&a#&a#&a#&a#&a#&a#&a#&a#&a#&a#&a#&a#&a#&a#&a#&a#&a#&a#&a#&a#&a#&a#&a#&a#&a#&a#&a#&a#&a#&a#&a#&a#&a#&a#&a#&a#&a#&a#&a#&a#&a#&a#&a#&a#&a#&a#&a#&a#&a#&a#&a#&a#&a#&a#&a#&a#&a#&a#&a#&a#&a#&a#&a#&a#&a#&a#&a#&a#&a#&a#&a#&a#&a#&a#&a#&a#&a#&a#&a#&a#&a#&a#&a#&a#&a#&a#&a#&a#&a#&a#&a#&a#&a#&a#&a#&a#&a#&a#&a#&a#&a#&a#&a#&a#&a#&a#&a#&a#&a#&a#&a#&a#&a#&a#&a#&a#&a#&a#&a#&a#&a#&a#&a#&a#&a#&a#&a#&a#&a#&a#&a#&a#&a#&a#&a#&a#&a#&a#&a#&a#&a#&a#&a#&a#&a#&a#&a#&a#&a#&a#&a#&a#&a#&a#&a#&a#&a#&a#&a#&a#&a#&a#&a#&a#&a#&a#&a#&a#&a#&a#&a#&a#&a#&a#&a#&a#&a#&a#&a#&a#&a#&a#&a#&a#&a#&a#&a#&a#&a#&a#&a#&a#&a#&a#&a#&a#&a#&a#&a#&a#&a#&a#&a#&a#&a#&a#&a#&a#&a#&a#&a#&a#&a#&a#&a#&a#&a#&a#&a#&a#&a#&a#&a#&a#&a#&a#&a#&a#&a#&a#&a#&a#&a#&a#&a#&a#&a#&a#&a#&a#&a#&a#&a#&a#&a#&a#&a#&a#&a#&a#&a#&a#&a#&a#&a#&a#&a#&a#&a#&a#&a#&a#&a#&a#&a#&a#&a#&a#&a#&a#&a#&a#&a#&a#&a#&a#&a#&a#&a#&a#&a#&a#&a#&a#&a#&a#&a#&a#&a#&a#&a#&a#&a#&a#&a#&a#&a#&a#&a#&a#&a#&a#&a#&a#&a#&a#&a#&a#&a#&a#&a#&a#&a#&a#&a#&a#&a#&a#&a#&a#&a#&a#&a#&a#&a#&a#&a#&a#&a#&a#&a#&a#&a#&a#&a#&a#&a#&a#&a#&a#&a#&a#&a#&a#&a#&a#&a#&a#&a#&a#&a#&a#&a#&a#&a#&a#&a#&a#&a#&a#&a#&a#&a#&a#&a#&a#&a#&a#&a#&a#&a#&a#&a#&a#&a#&a#&a#&a#&a#&a#&a#&a#&a#&a#&a#&a#&a#&a#&a#&a#&a#&a#&a#&a#&a#&a#&a#&a#&a#&a#&a#&a#&a#&a#&a#&a#&a#&a#&a#&a#&a#&a#&a#&a#&a#&a#&a#&a#&a#&a#&a#&a#&a#&a#&a#&a#&a#&a#&a#&a#&a#&a#&a#&a#&a#&a#&a#&a#&a#&a#&a#&a#&a#&a#&a#&a#&a#&a#&a#&a#&a#&a#&a#&a#&a#&a#&a#&a#&a#&a#&a#&a#&a#&a#&a#&a#&a#&a#&a#&a#&a#&a#&a#&a#&a#&a#&a#&a#&a#&a#&a#&a#&a#&a#&a#&a#&a#&a#&a#&a#&a#&a#&a#&a#&a#&a#&a#&a#&a#&a#&a#&a#&a#&a#&a#&a#&a#&a#&a#&a#&a#&a#&a#&a#&a#&a#&a#&a#&a#&a#&a#&a#&a#&a#&a#&a#&a#&a#&a#&a#&a#&a#&a#&a#&a#&a#&a#&a#&a#&a#&a#&a#&a#&a#&a#&a#&a#&a#&a#&a#&a#&a#&a#&a#&a#&a#&a#&a#&a#&a#&a#&a#&a#&a#&a#&a#&a#&a#&a#&a#&a#&a#&a#&a#&a#&a#&a#&a#&a#&a#&a#&a#&a#&a#&a#&a#&a#&a#&a#&a#&a#&a#&a#&a#&a#&a#&a#&a#&a#&a#&a#&a#&a#&a#&a#&a#&a#&a#&a#&a#&a#&a#&a#&a#&a#&a#&a#&a#&a#&a#&a#&a#&a#&a#&a#&a#&a#&a#&a#&a#&a#&a#&a#&a#&a#&a#&a#&a#&a#&a#&a#&a#&a#&a#&a#&a#&a#&a#&a#&a#&a#&a#&a#&a#&a#&a#&a#&a#&a#&a#&a#&a#&a#&a#&a#&a#&a#&a#&a#&a#&a#&a#&a#&a#&a#&a#&a#&a#&a#&a#&a#&a#&a#&a#&a#&a#&a#&a#&a#&a#&a#&a#&a#&a#&a#&a#&a#&a#&a#&a#&a#&a#&a#&a#&a#&a#&a#o4d#c#co3ba#ag#gf#&f#&f#&f#o4d#&d#c#co3ba#ag#gf#&f#&f#&f#o4d#&d#o3agf#fed#dc#c&c&c&ca&agf#fed#dc#c&c&c&ca&ao6a#&a#&a#&a#&a#&a#&a#&a#&a#&a#&a#&a#&a#&a#&a#&a#&a#&a#&a#&a#&a#&a#&a#&a#&a#&a#&a#&a#&a#&a#&a#&a#&a#&a#&a#&a#&a#&a#&a#&a#&a#&a#&a#&a#&a#&a#&a#&a#&a#&a#&a#&a#&a#&a#&a#&a#&a#&a#&a#&a#&a#&a#&a#&a#&a#&a#&a#&a#&a#&a#&a#&a#&a#&a#&a#&a#&a#&a#&a#&a#&a#&a#&a#&a#&a#&a#&a#&a#&a#&a#&a#&a#&a#&a#&a#&a#&a#&a#&a#&a#&a#&a#&a#&a#&a#&a#&a#&a#&a#&a#&a#&a#&a#&a#&a#&a#&a#&a#&a#&a#&a#&a#&a#&a#&a#&a#&a#&a#&a#&a#&a#&a#&a#&a#&a#&a#&a#&a#&a#&a#&a#&a#&a#&a#&a#&a#&a#&a#&a#&a#&a#&a#&a#&a#&a#&a#&a#&a#&a#&a#&a#&a#&a#&a#&a#&a#&a#&a#&a#&a#&a#&a#&a#&a#&a#&a#&a#&a#&a#&a#&a#&a#&a#&a#&a#&a#&a#&a#&a#&a#&a#&a#&a#&a#&a#&a#&a#&a#&a#&a#&a#&a#&a#&a#&a#&a#&a#&a#&a#&a#&a#&a#&a#&a#&a#&a#&a#&a#&a#&a#&a#&a#&a#&a#&a#&a#&a#&a#&a#&a#&a#&a#&a#&a#&a#&a#&a#&a#&a#&a#&a#&a#&a#&a#&a#&a#&a#&a#&a#&a#&a#&a#&a#&a#&a#&a#&a#&a#&a#&a#&a#&a#&a#&a#&a#&a#&a#&a#&a#&a#&a#&a#&a#&a#&a#&a#&a#&a#&a#&a#&a#&a#&a#&a#&a#&a#&a#&a#&a#&a#&a#&a#&a#&a#&a#&a#&a#&a#&a#&a#&a#&a#&a#&a#&a#&a#&a#&a#&a#&a#&a#&a#&a#&a#&a#&a#&a#&a#&a#&a#&a#&a#&a#&a#&a#&a#&a#&a#&a#&a#&a#&a#&a#&a#&a#&a#&a#&a#&a#&a#&a#&a#&a#&a#&a#&a#&a#&a#&a#&a#&a#&a#&a#&a#&a#&a#&a#&a#&a#&a#&a#&a#&a#&a#&a#&a#&a#&a#&a#&a#&a#&a#&a#&a#&a#&a#&a#&a#&a#&a#&a#&a#&a#&a#&a#&a#&a#&a#&a#&a#&a#&a#&a#&a#&a#&a#&a#&a#&a#&a#&a#&a#&a#&a#&a#&a#&a#&a#&a#&a#&a#&a#&a#&a#&a#&a#&a#&a#&a#&a#&a#&a#&a#&a#&a#&a#&a#&a#&a#&a#&a#&a#&a#&a#&a#&a#&a#&a#&a#&a#&a#&a#&a#&a#&a#&a#&a#&a#&a#&a#&a#&a#&a#&a#&a#&a#&a#&a#&a#&a#&a#&a#&a#&a#&a#&a#&a#&a#&a#&a#&a#&a#&a#&a#&a#&a#&a#&a#&a#&a#&a#&a#&a#&a#&a#&a#&a#&a#&a#&a#&a#&a#&a#&a#&a#&a#&a#&a#&a#&a#&a#&a#&a#&a#&a#&a#&a#&a#&a#&a#&a#&a#&a#&a#&a#&a#&a#&a#&a#&a#&a#&a#&a#&a#&a#&a#&a#&a#&a#&a#&a#&a#&a#&a#&a#&a#&a#&a#&a#&a#&a#&a#&a#&a#&a#&a#&a#&a#&a#&a#&a#&a#&a#&a#&a#&a#&a#&a#&a#&a#&a#&a#&a#&a#&a#&a#&a#&a#&a#&a#&a#&a#&a#&a#&a#&a#&a#&a#&a#&a#&a#&a#&a#&a#&a#&a#&a#&a#&a#&a#&a#&a#&a#&a#&a#&a#&a#&a#&a#&a#&a#&a#&a#&a#&a#&a#&a#&a#&a#&a#&a#&a#&a#&a#&a#&a#&a#&a#&a#&a#&a#&a#&a#&a#&a#&a#&a#&a#&a#&a#&a#&a#&a#&a#&a#&a#&a#&a#&a#&a#&a#&a#&a#&a#&a#&a#&a#&a#&a#&a#&a#&a#&a#&a#&a#&a#&a#&a#&a#&a#&a#&a#&a#&a#&a#&a#&a#&a#&a#&a#&a#&a#&a#&a#&a#&a#&a#&a#&a#&a#&a#&a#&a#&a#&a#&a#&a#&a#&a#&a#&a#&a#&a#&a#&a#&a#&a#&a#&a#&a#&a#&a#&a#&a#&a#&a#&a#&a#&a#&a#&a#&a#&a#&a#&a#&a#&a#&a#&a#&a#&a#&a#&a#&a#&a#&a#&a#&a#&a#&a#&a#&a#&a#&a#&a#&a#&a#&a#&a#&a#&a#&a#&a#&a#&a#&a#&a#&a#&a#&a#&a#&a#&a#&a#&a#&a#&a#&a#&a#&a#&a#&a#&a#&a#&a#&a#&a#&a#&a#&a#&a#&a#&a#&a#&a#&a#&a#&a#&a#&a#&a#&a#&a#&a#&a#&a#&a#&a#&a#&a#&a#&a#&a#&a#&a#&a#&a#&a#&a#&a#&a#&a#&a#&a#&a#&a#&a#&a#&a#&a#o4d#c#co3ba#ag#gf#&f#&f#&f#o4d#&d#c#co3ba#ag#gf#&f#&f#&f#o4d#&d#o3agf#fed#dc#c&c&c&ca&agf#fed#dc#c&c&c&ca&a
3: T120 @2 L240 $ r&r&r&r&r&r&r&r&r&r&r&r&r&r&r&r&r&r&r&r&r&r&r&r&r&r&r&r&r&r&r&r&r&r&r&r&r&r&r&r&r&r&r&r&r&r&r&r&r&r&r&r&r&r&r&r&r&r&r&r&r&r&r&r&r&r&r&r&r&r&r&r&r&r&r&r&r&r&r&r&r&r&r&r&r&r&r&r&r&r&r&r&r&r&r&r&r&r&r&r&r&r&r&r&r&r&r&r&r&r&r&r&r&r&r&r&r&r&r&r&r&r&r&r&r&r&r&r&r&r&r&r&r&r&r&r&r&r&r&r&r&r&r&r&r&r&r&r&r&r&r&r&r&r&r&r&r&r&r&r&r&r&r&r&r&r&r&r&r&r&r&r&r&r&r&r&r&r&r&r&r&r&r&r&r&r&r&r&r&r&r&r&r&r&r&r&r&r&r&r&r&r&r&r&r&r&r&r&r&r&r&r&r&r&r&r&r&r&r&r&r&r&r&r&r&r&r&r&r&r&r&r&r&r&r&r&r&r&r&r&r&r&r&r&r&r&r&r&r&r&r&r&r&r&r&r&r&r&r&r&r&r&r&r&r&r&r&r&r&r&r&r&r&r&r&r&r&r&r&r&r&r&r&r&r&r&r&r&r&r&r&r&r&r&r&r&r&r&r&r&r&r&r&r&r&r&r&r&r&r&r&r&r&r&r&r&r&r&r&r&r&r&r&r&r&r&r&r&r&r&r&r&r&r&r&r&r&r&r&r&r&r&r&r&r&r&r&r&r&r&r&r&r&r&r&r&r&r&r&r&r&r&r&r&r&r&r&r&r&r&r&r&r&r&r&r&r&r&r&r&r&r&r&r&r&r&r&r&r&r&r&r&r&r&r&r&r&r&r&r&r&r&r&r&r&r&r&r&r&r&r&r&r&r&r&r&r&r&r&r&r&r&r&r&r&r&r&r&r&r&r&r&r&r&r&r&r&r&r&r&r&r&r&r&r&r&r&r&r&r&r&r&r&r&r&r&r&r&r&r&r&r&r&r&r&r&r&r&r&r&r&r&r&r&r&r&r&r&r&r&r&r&r&r&r&r&r&r&r&r&r&r&r&r&r&r&r&r&r&r&r&r&r&r&r&r&r&r&r&r&r&r&r&r&r&r&r&r&r&r&r&r&r&r&r&r&r&r&r&r&r&r&r&r&r&r&r&r&r&r&r&r&r&r&r&r&r&r&r&r&r&r&r&r&r&r&r&r&r&r&r&r&r&r&r&r&r&r&r&r&r&r&r&r&r&r&r&r&r&r&r&r&r&r&r&r&r&r&r&r&r&r&r&r&r&r&r&r&r&r&r&r&r&r&r&r&r&r&r&r&r&r&r&r&r&r&r&r&r&r&r&r&r&r&r&r&r&r&r&r&r&r&r&r&r&r&r&r&r&r&r&r&r&r&r&r&r&r&r&r&r&r&r&r&r&r&r&r&r&r&r&r&r&r&r&r&r&r&r&r&r&r&r&r&r&r&r&r&r&r&r&r&r&r&r&r&r&r&r&r&r&r&r&r&r&r&r&r&r&r&r&r&r&r&r&r&r&r&r&r&r&r&r&r&r&r&r&r&r&r&r&r&r&r&r&r&r&r&r&r&r&r&r&r&r&r&r&r&r&r&r&r&r&r&r&r&r&r&r&r&r&r&r&r&r&r&r&r&r&r&r&r&r&r&r&r&r&r&r&r&r&r&r&r&r&r&r&r&r&r&r&r&r&r&r&r&r&r&r&r&r&r&r&r&r&r&r&r&r&r&r&r&r&r&r&r&r&r&r&r&r&r&r&r&r&r&r&r&r&r&r&r&r&r&r&r&r&r&r&r&r&r&r&r&r&r&r&r&r&r&r&r&r&r&r&r&r&r&r&r&r&r&r&r&r&r&r&r&r&r&r&r&r&r&r&r&r&r&r&r&r&r&r&r&r&r&r&r&r&r&r&r&r&r&r&r&r&r&r&r&r&r&r&r&r&r&r&r&r&r&r&r&r&r&r&r&r&r&r&r&r&r&r&r&r&r&r&r&r&r&r&r&r&r&r&r&r&r&r&r&r&r&r&r&r&r&r&r&r&r&r&r&r&r&r&r&r&r&r&r&r&r&r&r&r&r&r&r&r&r&r&r&r&r&r&r&r&r&r&r&r&r&r&r&r&r&r&r&r&r&r&r&r&r&r&r&r&r&r&r&r&r&r&r&r&r&r&r&r&r&r&r&r&r&r&r&r&r&r&r&r&r&r&r&r&r&r&r&r&r&r&r&r&r&r&r&r&r&r&r&r&r&r&r&r&r&r&r&r&r&r&r&r&r&r&r&r&r&r&r&r&r&r&r&r&r&r&r&r&r&r&r&r&r&r&r&r&r&r&r&r&r&r&r&r&r&r&r&r&r&r&r&r&r&r&r&r&r&r&r&r&r&r&r&r&r&r&r&r&r&r&r&r&r&r&r&r&r&r&r&r&r&r&r&r&r&r&r&r&r&r&r&r&r&r&r&r&r&r&r&r&r&r&r&r&r&r&r&r&r&r&r&r&r&r&r&r&r&r&r&r&r&r&r&r&r&r&r&r&r&r&r&r&r&r&r&r&r&r&r&r&r&r&r&r&r&r&r&r&r&r&r&r&r&r&r&r&r&r&r&r&r&r&r&r&r&r&r&r&r&r&r&r&r&r&r&r&r&r&r&r&r&r&r&r&r&r&r&r&r&r&r&r&r&r&r&r&r&r&r&r&r&r&r&r&r&r&r&r&r&r&r&r&r&r&r&r&r&r&r&r&r&r&r&r&r&r&r&r&r&r&r&r&r&r&r&r&r&r&r&r&r&r&r&r&r&r&r&r&r&r&r&r&r&r&r&r&r&r&r&r&r&r&r&r&r&r&r&r&r&r&r&r&r&r&r&r&r&r&r&r&r&r&r&r&r&r&r&r&r&r&r&r&r&r&r&r&r&r&r&r&r&r&r&r&r&r&r&r&r&r&r&r&r&r&r&r&r&r&r&r&r&r&r&r&r&r&r&r&r&r&r&r&r&r&r&r&r&r&r&r&r&r&r&r&r&r&r&r&r&r&r&r&r&r&r&r&r&r&r&r&r&r&r&r&r&r&r&r&r&r&r&r&r&r&r&r&r&r&r&r&r&r&r&r&r&r&r&r&r&r&r&r&r&r&r&r&r&r&r&r&r&r&r&r&r&r&r&r&r&r&r&r&r&r&r&r&r&r&r&r&r&r&r&r&r&r&r&r&r&r&r&r&r&r&r&r&r&r&r&r&r&r&r&r&r&r&r&r&r&r&r&r&r&r&r&r&r&r&r&r&r&r&r&r&r&r&r&r&r&r&r&r&r&r&r&r&r&r&r&r&r&r&r&r&r&r&r&r&r&r&r&r&r&r&r&r&r&r&r&r&r&r&r&r&r&r&r&r&r&r&r&r&r&r&r&r&r&r&r&r&r&r&r&r&r&r&r&r&r&r&r&r&r&r&r&r&r&r&r&r&r&r&r&r&r&r&r&r&r&r&r&r&r&r&r&r&r&r&r&r&r&r&r&r&r&r&r&r&r&r&r&r&r&r&r&r&r&r&r&r&r&r&r&r&r&r&r&r&r&r&r&r&r&r&r&r&r&r&r&r&r&r&r&r&r&r&r&r&r&r&r&r&r&r&r&r&r&r&r&r&r&r&r&r&r&r&r&r&r&r&r&r&r&r&r&r&r&r&r&r&r&r&r&r&r&r&r&r&r&r&r&r&r&r&r&r&r&r&r&r&r&r&r&r&r&r&r&r&r&r&r&r&r&r&r&r&r&r&r&r&r&r&r&r&r&r&r&r&r&r&r&r&r&r&r&r&r
