0: T120 @0 L240 $ o5f#&f#&f#&f#&f#&f#&f#&f#&f#&f#&f#&f#&f#&f#&f#&f#&f#&f#&f#&f#&f#&f#&f#&f#&f#&f#&f#&f#&f#&f#&f#&f#&f#&f#&f#&f#&f#&f#&f#&f#&f#&f#&f#&f#&f#&f#&f#&f#&f#&f#&f#&f#&f#&f#&f#&f#&f#&f#&f#&f#&f#&f#&f#&f#&f#&f#&f#&f#&f#&f#&f#&f#&f#&f#&f#&f#&f#&f#&f#&f#rg&g&g&g&g&g&g&g&g&g&g&g&g&g&g&g&g&g&g&g&g&g&g&g&g&g&g&g&g&g&g&g&g&g&g&g&g&g&g&g&g&g&g&g&g&g&g&g&g&g&g&g&g&ga&a&a&a&a&a&a&a&a&a&a&a&a&a&a&a&a&a&a&a&a&a&a&a&a&a&af#&f#&f#&f#&f#&f#&f#&f#&f#&f#&f#&f#&f#&f#&f#&f#&f#&f#&f#&f#&f#&f#&f#&f#&f#&f#&f#&f#&f#&f#&f#&f#&f#&f#&f#&f#&f#&f#&f#&f#&f#&f#&f#&f#&f#&f#&f#&f#&f#&f#&f#&f#&f#&f#g&g&g&g&g&g&g&g&g&g&g&g&g&g&g&g&g&g&g&g&g&g&g&g&g&g&g&g&g&g&g&g&g&g&g&g&g&g&g&g&g&g&g&g&g&g&g&g&g&g&g&g&g&g&g&g&g&g&g&g&g&g&g&g&g&g&g&g&g&g&g&g&g&g&g&g&g&g&g&g&g&g&g&g&g&g&g&g&g&g&g&g&g&g&g&g&g&g&g&g&g&g&g&gr&r&r&re&e&e&e&e&e&e&e&e&e&e&e&e&e&e&e&e&e&e&e&e&e&e&e&e&e&e&e&e&e&e&e&e&e&e&e&e&e&e&e&e&e&e&e&e&e&e&e&e&e&e&e&e&e&e&e&e&e&e&e&e&e&e&e&e&e&e&e&e&e&e&e&e&e&e&e&e&e&e&e&e&e&e&e&e&e&e&e&e&e&e&e&e&e&e&e&e&e&e&e&e&e&e&e&e&e&e&eo4a&a&a&a&a&a&a&a&a&a&a&a&a&a&a&a&a&a&a&a&a&a&a&a&a&a&a&a&a&a&a&a&a&a&a&a&a&a&a&a&a&a&a&a&a&a&a&a&a&a&a&a&a&a&a&a&a&a&a&a&a&a&a&a&a&a&a&a&a&a&a&a&a&a&a&a&a&a&a&a&ao5d&d&d&d&d&d&d&d&d&d&d&d&d&d&d&d&d&d&d&d&d&d&d&d&d&d&do4f#&f#&f#&f#&f#&f#&f#&f#&f#&f#&f#&f#&f#&f#&f#&f#&f#&f#&f#&f#&f#&f#&f#&f#&f#&f#&f#&f#&f#&f#&f#&f#&f#&f#&f#&f#&f#&f#&f#&f#&f#&f#&f#&f#&f#&f#&f#&f#&f#&f#&f#&f#&f#&f#&f#&f#&f#&f#&f#&f#&f#&f#&f#&f#&f#&f#&f#&f#&f#&f#&f#&f#&f#&f#&f#&f#&f#&f#&f#&f#&f#&f#&f#&f#&f#&f#&f#&f#&f#&f#&f#&f#&f#&f#&f#&f#&f#&f#&f#&f#&f#&f#&f#&f#r&r&r&r&r&r&r&r&r&r&r&r&r&r&r&r&r&r&r&r&r&r&r&r&r&r&r&r&r&r&r&r&r&r&r&r&r&r&r&r&r&r&r&r&r&r&r&r&r&r&r&r&r&r&r&r&r&r&r&r&r&r&r&r&r&r&r&r&r&r&r&r&r&r&r&r&r&r&r&r&r&r&r&r&ro5e&e&e&e&e&e&e&e&e&e&e&e&ef#&f#&f#&f#&f#&f#&f#&f#&f#&f#&f#&f#&f#&f#e&e&e&e&e&e&e&e&e&e&e&e&e&e&e&e&e&e&e&e&e&e&e&e&e&e&e&e&e&e&e&e&e&e&e&e&e&e&e&eo4g&g&g&g&g&g&g&g&g&g&g&g&g&g&g&g&g&g&g&g&g&g&g&g&g&g&g&g&g&g&g&g&g&g&g&g&g&g&g&g&go5c&c&c&c&c&c&c&c&c&c&c&c&c&c&c&c&c&c&c&c&c&c&c&c&c&c&cf#&f#&f#&f#&f#&f#&f#&f#&f#&f#&f#&f#&f#&f#&f#&f#&f#&f#&f#&f#&f#&f#&f#&f#&f#&f#&f#&f#&f#&f#&f#&f#&f#&f#&f#&f#&f#&f#&f#&f#&f#&f#&f#&f#&f#&f#&f#&f#&f#&f#&f#&f#&f#&f#&f#&f#&f#&f#&f#&f#&f#&f#&f#&f#&f#&f#&f#&f#&f#&f#&f#&f#&f#&f#&f#&f#&f#&f#&f#&f#rg&g&g&g&g&g&g&g&g&g&g&g&g&g&g&g&g&g&g&g&g&g&g&g&g&g&g&g&g&g&g&g&g&g&g&g&g&g&g&g&g&g&g&g&g&g&g&g&g&g&g&g&g&ga&a&a&a&a&a&a&a&a&a&a&a&a&a&a&a&a&a&a&a&a&a&a&a&a&a&af#&f#&f#&f#&f#&f#&f#&f#&f#&f#&f#&f#&f#&f#&f#&f#&f#&f#&f#&f#&f#&f#&f#&f#&f#&f#&f#&f#&f#&f#&f#&f#&f#&f#&f#&f#&f#&f#&f#&f#&f#&f#&f#&f#&f#&f#&f#&f#&f#&f#&f#&f#&f#&f#g&g&g&g&g&g&g&g&g&g&g&g&g&g&g&g&g&g&g&g&g&g&g&g&g&g&g&g&g&g&g&g&g&g&g&g&g&g&g&g&g&g&g&g&g&g&g&g&g&g&g&g&g&g&g&g&g&g&g&g&g&g&g&g&g&g&g&g&g&g&g&g&g&g&g&g&g&g&g&g&g&g&g&g&g&g&g&g&g&g&g&g&g&g&g&g&g&g&g&g&g&g&g&gr&r&r&re&e&e&e&e&e&e&e&e&e&e&e&e&e&e&e&e&e&e&e&e&e&e&e&e&e&e&e&e&e&e&e&e&e&e&e&e&e&e&e&e&e&e&e&e&e&e&e&e&e&e&e&e&e&e&e&e&e&e&e&e&e&e&e&e&e&e&e&e&e&e&e&e&e&e&e&e&e&e&e&e&e&e&e&e&e&e&e&e&e&e&e&e&e&e&e&e&e&e&e&e&e&e&e&e&e&e&eo4f#&f#&f#&f#&f#&f#&f#&f#&f#&f#&f#&f#&f#&f#&f#&f#&f#&f#&f#&f#&f#&f#&f#&f#&f#&f#&f#&f#&f#&f#&f#&f#&f#&f#&f#&f#&f#&f#&f#&f#o5f#&f#&f#&f#&f#&f#&f#&f#&f#&f#&f#&f#&f#&f#&f#&f#&f#&f#&f#&f#&f#&f#&f#&f#&f#&f#&f#&f#&f#&f#&f#&f#&f#&f#&f#&f#&f#&f#&f#&f#&f#d&d&d&d&d&d&d&d&d&d&d&d&d&d&d&d&d&d&d&d&d&d&d&d&d&d&do4a&a&a&a&a&a&a&a&a&a&a&a&a&a&a&a&a&a&a&a&a&a&a&a&a&a&a&a&a&a&a&a&a&a&a&a&a&a&a&a&a&a&a&a&a&a&a&a&a&a&a&a&a&a&a&a&a&a&a&a&a&a&a&a&a&a&a&a&a&a&a&a&a&a&a&a&a&a&a&a&a&a&a&a&a&a&a&a&a&a&a&a&a&a&a&a&a&a&a&a&a&a&a&ar&r&r&ro5e&e&e&e&e&e&e&e&e&e&e&e&e&e&e&e&e&e&e&e&e&e&e&e&e&e&eo4g&g&g&g&g&g&g&g&g&g&g&g&g&g&g&g&g&g&g&g&g&g&g&g&g&g&go5e&e&e&e&e&e&e&e&e&e&e&e&e&e&e&e&e&e&e&e&e&e&e&e&e&e&e&e&e&e&e&e&e&e&e&e&e&e&e&e&e&e&e&e&e&e&e&e&e&e&e&e&e&e&e&e&e&e&e&e&e&e&e&e&e&e&e&e&e&e&e&e&e&e&e&e&e&e&e&e&e&e&e&e&e&e&e&e&e&e&e&e&e&e&e&e&e&e&e&e&e&e&e&e&e&e&e&e&e&e&e&e&e&e&e&e&e&e&e&e&e&e&e&e&e&e&e&e&e&e&e&e&e&e&e&e&e&e&e&e&e&e&e&e&e&e&e&e&e&e&er&r&r&r&r&r&r&r&r&r&r
1: T120 @2 L240 $ o3d&d&d&d&d&d&d&d&d&d&dr&r&r&r&r&r&r&r&r&r&r&r&r&r&r&ro4d&d&d&d&d&d&d&d&d&d&dr&rd&d&d&d&d&d&d&d&d&d&dr&r&ro3d&d&d&d&d&d&d&d&d&d&dr&r&r&r&r&r&r&r&r&r&r&r&r&r&r&ro4d&d&d&d&d&d&d&d&d&d&dr&rd&d&d&d&d&d&d&d&d&d&dr&r&ro3d&d&d&d&d&d&d&d&d&d&dr&r&r&r&r&r&r&r&r&r&r&r&r&r&r&ro4d&d&d&d&d&d&d&d&d&d&dr&rd&d&d&d&d&d&d&d&d&d&dr&r&ro3d&d&d&d&d&d&d&d&d&d&dr&r&r&r&r&r&r&r&r&r&r&r&r&r&r&ro4d&d&d&d&d&d&d&d&d&d&dr&rd&d&d&d&d&d&d&d&d&d&dr&r&ro3c&c&c&c&c&c&c&c&c&c&cr&r&r&r&r&r&r&r&r&r&r&r&r&r&r&ro4c&c&c&c&c&c&c&c&c&c&cr&rc&c&c&c&c&c&c&c&c&c&cr&r&ro3c&c&c&c&c&c&c&c&c&c&cr&r&r&r&r&r&r&r&r&r&r&r&r&r&r&ro4c&c&c&c&c&c&c&c&c&c&cr&rc&c&c&c&c&c&c&c&c&c&cr&r&ro3c&c&c&c&c&c&c&c&c&c&cr&r&r&r&r&r&r&r&r&r&r&r&r&r&r&ro4c&c&c&c&c&c&c&c&c&c&cr&rc&c&c&c&c&c&c&c&c&c&cr&r&ro3c&c&c&c&c&c&c&c&c&c&cr&r&r&r&r&r&r&r&r&r&r&r&r&r&r&ro4c&c&c&c&c&c&c&c&c&c&cr&rc&c&c&c&c&c&c&c&c&c&cr&r&ro3d&d&d&d&d&d&d&d&d&d&dr&r&r&r&r&r&r&r&r&r&r&r&r&r&r&ro4d&d&d&d&d&d&d&d&d&d&dr&rd&d&d&d&d&d&d&d&d&d&dr&r&ro3d&d&d&d&d&d&d&d&d&d&dr&r&r&r&r&r&r&r&r&r&r&r&r&r&r&ro4d&d&d&d&d&d&d&d&d&d&dr&rd&d&d&d&d&d&d&d&d&d&dr&r&ro3d&d&d&d&d&d&d&d&d&d&dr&r&r&r&r&r&r&r&r&r&r&r&r&r&r&ro4d&d&d&d&d&d&d&d&d&d&dr&rd&d&d&d&d&d&d&d&d&d&dr&r&ro3d&d&d&d&d&d&d&d&d&d&dr&r&r&r&r&r&r&r&r&r&r&r&r&r&r&ro4d&d&d&d&d&d&d&d&d&d&dr&rd&d&d&d&d&d&d&d&d&d&dr&r&ro3c&c&c&c&c&c&c&c&c&c&cr&r&r&r&r&r&r&r&r&r&r&r&r&r&r&ro4c&c&c&c&c&c&c&c&c&c&cr&rc&c&c&c&c&c&c&c&c&c&cr&r&ro3c&c&c&c&c&c&c&c&c&c&cr&r&r&r&r&r&r&r&r&r&r&r&r&r&r&ro4c&c&c&c&c&c&c&c&c&c&cr&rc&c&c&c&c&c&c&c&c&c&cr&r&ro3c&c&c&c&c&c&c&c&c&c&cr&r&r&r&r&r&r&r&r&r&r&r&r&r&r&ro4c&c&c&c&c&c&c&c&c&c&cr&rc&c&c&c&c&c&c&c&c&c&cr&r&ro3c&c&c&c&c&c&c&c&c&c&cr&r&r&r&r&r&r&r&r&r&r&r&r&r&r&ro4c&c&c&c&c&c&c&c&c&c&cr&rc&c&c&c&c&c&c&c&c&c&cr&r&ro3d&d&d&d&d&d&d&d&d&d&dr&r&r&r&r&r&r&r&r&r&r&r&r&r&r&ro4d&d&d&d&d&d&d&d&d&d&dr&rd&d&d&d&d&d&d&d&d&d&dr&r&ro3d&d&d&d&d&d&d&d&d&d&dr&r&r&r&r&r&r&r&r&r&r&r&r&r&r&ro4d&d&d&d&d&d&d&d&d&d&dr&rd&d&d&d&d&d&d&d&d&d&dr&r&ro3d&d&d&d&d&d&d&d&d&d&dr&r&r&r&r&r&r&r&r&r&r&r&r&r&r&ro4d&d&d&d&d&d&d&d&d&d&dr&rd&d&d&d&d&d&d&d&d&d&dr&r&ro3d&d&d&d&d&d&d&d&d&d&dr&r&r&r&r&r&r&r&r&r&r&r&r&r&r&ro4d&d&d&d&d&d&d&d&d&d&dr&rd&d&d&d&d&d&d&d&d&d&dr&r&ro3c&c&c&c&c&c&c&c&c&c&cr&r&r&r&r&r&r&r&r&r&r&r&r&r&r&ro4c&c&c&c&c&c&c&c&c&c&cr&rc&c&c&c&c&c&c&c&c&c&cr&r&ro3c&c&c&c&c&c&c&c&c&c&cr&r&r&r&r&r&r&r&r&r&r&r&r&r&r&ro4c&c&c&c&c&c&c&c&c&c&cr&rc&c&c&c&c&c&c&c&c&c&cr&r&ro3c&c&c&c&c&c&c&c&c&c&cr&r&r&r&r&r&r&r&r&r&r&r&r&r&r&ro4c&c&c&c&c&c&c&c&c&c&cr&rc&c&c&c&c&c&c&c&c&c&cr&r&ro3c&c&c&c&c&c&c&c&c&c&cr&r&r&r&r&r&r&r&r&r&r&r&r&r&r&ro4c&c&c&c&c&c&c&c&c&c&cr&rc&c&c&c&c&c&c&c&c&c&cr&r&ro3d&d&d&d&d&d&d&d&d&d&dr&r&r&r&r&r&r&r&r&r&r&r&r&r&r&ro4d&d&d&d&d&d&d&d&d&d&dr&rd&d&d&d&d&d&d&d&d&d&dr&r&ro3d&d&d&d&d&d&d&d&d&d&dr&r&r&r&r&r&r&r&r&r&r&r&r&r&r&ro4d&d&d&d&d&d&d&d&d&d&dr&rd&d&d&d&d&d&d&d&d&d&dr&r&ro3d&d&d&d&d&d&d&d&d&d&dr&r&r&r&r&r&r&r&r&r&r&r&r&r&r&ro4d&d&d&d&d&d&d&d&d&d&dr&rd&d&d&d&d&d&d&d&d&d&dr&r&ro3d&d&d&d&d&d&d&d&d&d&dr&r&r&r&r&r&r&r&r&r&r&r&r&r&r&ro4d&d&d&d&d&d&d&d&d&d&dr&rd&d&d&d&d&d&d&d&d&d&dr&r&ro3c&c&c&c&c&c&c&c&c&c&cr&r&r&r&r&r&r&r&r&r&r&r&r&r&r&ro4c&c&c&c&c&c&c&c&c&c&cr&rc&c&c&c&c&c&c&c&c&c&cr&r&ro3c&c&c&c&c&c&c&c&c&c&cr&r&r&r&r&r&r&r&r&r&r&r&r&r&r&ro4c&c&c&c&c&c&c&c&c&c&cr&rc&c&c&c&c&c&c&c&c&c&cr&r&ro3c&c&c&c&c&c&c&c&c&c&cr&r&r&r&r&r&r&r&r&r&r&r&r&r&r&ro4c&c&c&c&c&c&c&c&c&c&cr&rc&c&c&c&c&c&c&c&c&c&cr&r&ro3c&c&c&c&c&c&c&c&c&c&c&c&c&c&c&c&c&c&c&c&c&c&cr&r&r&ro4c&c&c&c&c&c&c&c&c&c&c&c&c&c&c&c&c&c&c&c&c&c&cr&r&r&r
2: T120 @3 L240 $ o6a#&a#&a#&a#&a#&a#&a#&a#&a#&a#&a#&a#&a#&a#&a#&a#&a#&a#&a#&a#&a#&a#&a#&a#&a#&a#&a#&a#&a#&a#&a#&a#&a#&a#&a#&a#&a#&a#&a#&a#&a#&a#&a#&a#&a#&a#&a#&a#&a#&a#&a#&a#&a#&a#o5a#&a#&a#&a#&a#&a#&a#&a#&a#&a#&a#&a#&a#&a#&a#&a#&a#&a#&a#&a#&a#&a#&a#&a#&a#&a#&a#o6a#&a#&a#&a#&a#&a#&a#&a#&a#&a#&a#&a#&a#&a#&a#&a#&a#&a#&a#&a#&a#&a#&a#&a#&a#&a#&a#&a#&a#&a#&a#&a#&a#&a#&a#&a#&a#&a#&a#&a#&a#&a#&a#&a#&a#&a#&a#&a#&a#&a#&a#&a#&a#&a#&a#&a#&a#&a#&a#&a#&a#&a#&a#&a#&a#&a#&a#&a#&a#&a#&a#&a#&a#&a#&a#&a#&a#&a#&a#&a#&a#o5a#&a#&a#&a#&a#&a#&a#&a#&a#&a#&a#&a#&a#&a#&a#&a#&a#&a#&a#&a#&a#&a#&a#&a#&a#&a#&a#o6a#&a#&a#&a#&a#&a#&a#&a#&a#&a#&a#&a#&a#&a#&a#&a#&a#&a#&a#&a#&a#&a#&a#&a#&a#&a#&a#&a#&a#&a#&a#&a#&a#&a#&a#&a#&a#&a#&a#&a#&a#&a#&a#&a#&a#&a#&a#&a#&a#&a#&a#&a#&a#&a#&a#&a#&a#&a#&a#&a#&a#&a#&a#&a#&a#&a#&a#&a#&a#&a#&a#&a#&a#&a#&a#&a#&a#&a#&a#&a#&a#o5a#&a#&a#&a#&a#&a#&a#&a#&a#&a#&a#&a#&a#&a#&a#&a#&a#&a#&a#&a#&a#&a#&a#&a#&a#&a#&a#o6a#&a#&a#&a#&a#&a#&a#&a#&a#&a#&a#&a#&a#&a#&a#&a#&a#&a#&a#&a#&a#&a#&a#&a#&a#&a#&a#&a#&a#&a#&a#&a#&a#&a#&a#&a#&a#&a#&a#&a#&a#&a#&a#&a#&a#&a#&a#&a#&a#&a#&a#&a#&a#&a#&a#&a#&a#&a#&a#&a#&a#&a#&a#&a#&a#&a#&a#&a#&a#&a#&a#&a#&a#&a#&a#&a#&a#&a#&a#&a#&a#o5a#&a#&a#&a#&a#&a#&a#&a#&a#&a#&a#&a#&a#&a#&a#&a#&a#&a#&a#&a#&a#&a#&a#&a#&a#&a#&a#o6a#&a#&a#&a#&a#&a#&a#&a#&a#&a#&a#&a#&a#&a#&a#&a#&a#&a#&a#&a#&a#&a#&a#&a#&a#&a#&a#&a#&a#&a#&a#&a#&a#&a#&a#&a#&a#&a#&a#&a#&a#&a#&a#&a#&a#&a#&a#&a#&a#&a#&a#&a#&a#&a#&a#&a#&a#&a#&a#&a#&a#&a#&a#&a#&a#&a#&a#&a#&a#&a#&a#&a#&a#&a#&a#&a#&a#&a#&a#&a#&a#o5a#&a#&a#&a#&a#&a#&a#&a#&a#&a#&a#&a#&a#&a#&a#&a#&a#&a#&a#&a#&a#&a#&a#&a#&a#&a#&a#o6a#&a#&a#&a#&a#&a#&a#&a#&a#&a#&a#&a#&a#&a#&a#&a#&a#&a#&a#&a#&a#&a#&a#&a#&a#&a#&a#&a#&a#&a#&a#&a#&a#&a#&a#&a#&a#&a#&a#&a#&a#&a#&a#&a#&a#&a#&a#&a#&a#&a#&a#&a#&a#&a#&a#&a#&a#&a#&a#&a#&a#&a#&a#&a#&a#&a#&a#&a#&a#&a#&a#&a#&a#&a#&a#&a#&a#&a#&a#&a#&a#o5a#&a#&a#&a#&a#&a#&a#&a#&a#&a#&a#&a#&a#&a#&a#&a#&a#&a#&a#&a#&a#&a#&a#&a#&a#&a#&a#o6a#&a#&a#&a#&a#&a#&a#&a#&a#&a#&a#&a#&a#&a#&a#&a#&a#&a#&a#&a#&a#&a#&a#&a#&a#&a#&a#&a#&a#&a#&a#&a#&a#&a#&a#&a#&a#&a#&a#&a#&a#&a#&a#&a#&a#&a#&a#&a#&a#&a#&a#&a#&a#&a#&a#&a#&a#&a#&a#&a#&a#&a#&a#&a#&a#&a#&a#&a#&a#&a#&a#&a#&a#&a#&a#&a#&a#&a#&a#&a#&a#o5a#&a#&a#&a#&a#&a#&a#&a#&a#&a#&a#&a#&a#&a#&a#&a#&a#&a#&a#&a#&a#&a#&a#&a#&a#&a#&a#o6a#&a#&a#&a#&a#&a#&a#&a#&a#&a#&a#&a#&a#&a#&a#&a#&a#&a#&a#&a#&a#&a#&a#&a#&a#&a#&a#&a#&a#&a#&a#&a#&a#&a#&a#&a#&a#&a#&a#&a#&a#&a#&a#&a#&a#&a#&a#&a#&a#&a#&a#&a#&a#&a#&a#&a#&a#&a#&a#&a#&a#&a#&a#&a#&a#&a#&a#&a#&a#&a#&a#&a#&a#&a#&a#&a#&a#&a#&a#&a#&a#o5a#&a#&a#&a#&a#&a#&a#&a#&a#&a#&a#&a#&a#&a#&a#&a#&a#&a#&a#&a#&a#&a#&a#&a#&a#&a#&a#o6a#&a#&a#&a#&a#&a#&a#&a#&a#&a#&a#&a#&a#o5a#&a#&a#&a#&a#&a#&a#&a#&a#&a#&a#&a#&a#&a#o6a#&a#&a#&a#&a#&a#&a#&a#&a#&a#&a#&a#&a#&a#&a#&a#&a#&a#&a#&a#&a#&a#&a#&a#&a#&a#&a#&a#&a#&a#&a#&a#&a#&a#&a#&a#&a#&a#&a#&a#&a#&a#&a#&a#&a#&a#&a#&a#&a#&a#&a#&a#&a#&a#o5a#&a#&a#&a#&a#&a#&a#&a#&a#&a#&a#&a#&a#&a#&a#&a#&a#&a#&a#&a#&a#&a#&a#&a#&a#&a#&a#o6a#&a#&a#&a#&a#&a#&a#&a#&a#&a#&a#&a#&a#&a#&a#&a#&a#&a#&a#&a#&a#&a#&a#&a#&a#&a#&a#&a#&a#&a#&a#&a#&a#&a#&a#&a#&a#&a#&a#&a#&a#&a#&a#&a#&a#&a#&a#&a#&a#&a#&a#&a#&a#&a#&a#&a#&a#&a#&a#&a#&a#&a#&a#&a#&a#&a#&a#&a#&a#&a#&a#&a#&a#&a#&a#&a#&a#&a#&a#&a#&a#o5a#&a#&a#&a#&a#&a#&a#&a#&a#&a#&a#&a#&a#&a#&a#&a#&a#&a#&a#&a#&a#&a#&a#&a#&a#&a#&a#o6a#&a#&a#&a#&a#&a#&a#&a#&a#&a#&a#&a#&a#&a#&a#&a#&a#&a#&a#&a#&a#&a#&a#&a#&a#&a#&a#&a#&a#&a#&a#&a#&a#&a#&a#&a#&a#&a#&a#&a#&a#&a#&a#&a#&a#&a#&a#&a#&a#&a#&a#&a#&a#&a#&a#&a#&a#&a#&a#&a#&a#&a#&a#&a#&a#&a#&a#&a#&a#&a#&a#&a#&a#&a#&a#&a#&a#&a#&a#&a#&a#o5a#&a#&a#&a#&a#&a#&a#&a#&a#&a#&a#&a#&a#&a#&a#&a#&a#&a#&a#&a#&a#&a#&a#&a#&a#&a#&a#o6a#&a#&a#&a#&a#&a#&a#&a#&a#&a#&a#&a#&a#&a#&a#&a#&a#&a#&a#&a#&a#&a#&a#&a#&a#&a#&a#&a#&a#&a#&a#&a#&a#&a#&a#&a#&a#&a#&a#&a#&a#&a#&a#&a#&a#&a#&a#&a#&a#&a#&a#&a#&a#&a#&a#&a#&a#&a#&a#&a#&a#&a#&a#&a#&a#&a#&a#&a#&a#&a#&a#&a#&a#&a#&a#&a#&a#&a#&a#&a#&a#o5a#&a#&a#&a#&a#&a#&a#&a#&a#&a#&a#&a#&a#&a#&a#&a#&a#&a#&a#&a#&a#&a#&a#&a#&a#&a#&a#o6a#&a#&a#&a#&a#&a#&a#&a#&a#&a#&a#&a#&a#&a#&a#&a#&a#&a#&a#&a#&a#&a#&a#&a#&a#&a#&a#&a#&a#&a#&a#&a#&a#&a#&a#&a#&a#&a#&a#&a#&a#&a#&a#&a#&a#&a#&a#&a#&a#&a#&a#&a#&a#&a#&a#&a#&a#&a#&a#&a#&a#&a#&a#&a#&a#&a#&a#&a#&a#&a#&a#&a#&a#&a#&a#&a#&a#&a#&a#&a#&a#o5a#&a#&a#&a#&a#&a#&a#&a#&a#&a#&a#&a#&a#&a#&a#&a#&a#&a#&a#&a#&a#&a#&a#&a#&a#&a#&a#o6a#&a#&a#&a#&a#&a#&a#&a#&a#&a#&a#&a#&a#&a#&a#&a#&a#&a#&a#&a#&a#&a#&a#&a#&a#&a#&a#&a#&a#&a#&a#&a#&a#&a#&a#&a#&a#&a#&a#&a#&a#&a#&a#&a#&a#&a#&a#&a#&a#&a#&a#&a#&a#&a#&a#&a#&a#&a#&a#&a#&a#&a#&a#&a#&a#&a#&a#&a#&a#&a#&a#&a#&a#&a#&a#&a#&a#&a#&a#&a#&a#o5a#&a#&a#&a#&a#&a#&a#&a#&a#&a#&a#&a#&a#&a#&a#&a#&a#&a#&a#&a#&a#&a#&a#&a#&a#&a#&a#o6a#&a#&a#&a#&a#&a#&a#&a#&a#&a#&a#&a#&a#&a#&a#&a#&a#&a#&a#&a#&a#&a#&a#&a#&a#&a#&a#&a#&a#&a#&a#&a#&a#&a#&a#&a#&a#&a#&a#&a#&a#&a#&a#&a#&a#&a#&a#&a#&a#&a#&a#&a#&a#&a#&a#&a#&a#&a#&a#&a#&a#&a#&a#&a#&a#&a#&a#&a#&a#&a#&a#&a#&a#&a#&a#&a#&a#&a#&a#&a#&a#o5a#&a#&a#&a#&a#&a#&a#&a#&a#&a#&a#&a#&a#&a#&a#&a#&a#&a#&a#&a#&a#&a#&a#&a#&a#&a#&a#o6a#&a#&a#&a#&a#&a#&a#&a#&a#&a#&a#&a#&a#&a#&a#&a#&a#&a#&a#&a#&a#&a#&a#&a#&a#&a#&a#&a#&a#&a#&a#&a#&a#&a#&a#&a#&a#&a#&a#&a#&a#&a#&a#&a#&a#&a#&a#&a#&a#&a#&a#&a#&a#&a#&a#&a#&a#&a#&a#&a#&a#&a#&a#&a#&a#&a#&a#&a#&a#&a#&a#&a#&a#&a#&a#&a#&a#&a#&a#&a#&a#o5a#&a#&a#&a#&a#&a#&a#&a#&a#&a#&a#&a#&a#&a#&a#&a#&a#&a#&a#&a#&a#&a#&a#&a#&a#&a#&a#o6a#&a#&a#&a#&a#&a#&a#&a#&a#&a#&a#&a#&a#o5a#&a#&a#&a#&a#&a#&a#&a#&a#&a#&a#&a#&a#&a#
3: T120 @2 L240 $ r&r&r&r&r&r&r&r&r&r&r&r&r&r&r&r&r&r&r&r&r&r&r&r&r&r&r&r&r&r&r&r&r&r&r&r&r&r&r&r&r&r&r&r&r&r&r&r&r&r&r&r&r&r&r&r&r&r&r&r&r&r&r&r&r&r&r&r&r&r&r&r&r&r&r&r&r&r&r&r&r&r&r&r&r&r&r&r&r&r&r&r&r&r&r&r&r&r&r&r&r&r&r&r&r&r&r&r&r&r&r&r&r&r&r&r&r&r&r&r&r&r&r&r&r&r&r&r&r&r&r&r&r&r&r&r&r&r&r&r&r&r&r&r&r&r&r&r&r&r&r&r&r&r&r&r&r&r&r&r&r&r&r&r&r&r&r&r&r&r&r&r&r&r&r&r&r&r&r&r&r&r&r&r&r&r&r&r&r&r&r&r&r&r&r&r&r&r&r&r&r&r&r&r&r&r&r&r&r&r&r&r&r&r&r&r&r&r&r&r&r&r&r&r&r&r&r&r&r&r&r&r&r&r&r&r&r&r&r&r&r&r&r&r&r&r&r&r&r&r&r&r&r&r&r&r&r&r&r&r&r&r&r&r&r&r&r&r&r&r&r&r&r&r&r&r&r&r&r&r&r&r&r&r&r&r&r&r&r&r&r&r&r&r&r&r&r&r&r&r&r&r&r&r&r&r&r&r&r&r&r&r&r&r&r&r&r&r&r&r&r&r&r&r&r&r&r&r&r&r&r&r&r&r&r&r&r&r&r&r&r&r&r&r&r&r&r&r&r&r&r&r&r&r&r&r&r&r&r&r&r&r&r&r&r&r&r&r&r&r&r&r&r&r&r&r&r&r&r&r&r&r&r&r&r&r&r&r&r&r&r&r&r&r&r&r&r&r&r&r&r&r&r&r&r&r&r&r&r&r&r&r&r&r&r&r&r&r&r&r&r&r&r&r&r&r&r&r&r&r&r&r&r&r&r&r&r&r&r&r&r&r&r&r&r&r&r&r&r&r&r&r&r&r&r&r&r&r&r&r&r&r&r&r&r&r&r&r&r&r&r&r&r&r&r&r&r&r&r&r&r&r&r&r&r&r&r&r&r&r&r&r&r&r&r&r&r&r&r&r&r&r&r&r&r&r&r&r&r&r&r&r&r&r&r&r&r&r&r&r&r&r&r&r&r&r&r&r&r&r&r&r&r&r&r&r&r&r&r&r&r&r&r&r&r&r&r&r&r&r&r&r&r&r&r&r&r&r&r&r&r&r&r&r&r&r&r&r&r&r&r&r&r&r&r&r&r&r&r&r&r&r&r&r&r&r&r&r&r&r&r&r&r&r&r&r&r&r&r&r&r&r&r&r&r&r&r&r&r&r&r&r&r&r&r&r&r&r&r&r&r&r&r&r&r&r&r&r&r&r&r&r&r&r&r&r&r&r&r&r&r&r&r&r&r&r&r&r&r&r&r&r&r&r&r&r&r&r&r&r&r&r&r&r&r&r&r&r&r&r&r&r&r&r&r&r&r&r&r&r&r&r&r&r&r&r&r&r&r&r&r&r&r&r&r&r&r&r&r&r&r&r&r&r&r&r&r&r&r&r&r&r&r&r&r&r&r&r&r&r&r&r&r&r&r&r&r&r&r&r&r&r&r&r&r&r&r&r&r&r&r&r&r&r&r&r&r&r&r&r&r&r&r&r&r&r&r&r&r&r&r&r&r&r&r&r&r&r&r&r&r&r&r&r&r&r&r&r&r&r&r&r&r&r&r&r&r&r&r&r&r&r&r&r&r&r&r&r&r&r&r&r&r&r&r&r&r&r&r&r&r&r&r&r&r&r&r&r&r&r&r&r&r&r&r&r&r&r&r&r&r&r&r&r&r&r&r&r&r&r&r&r&r&r&r&r&r&r&r&r&r&r&r&r&r&r&r&r&r&r&r&r&r&r&r&r&r&r&r&r&r&r&r&r&r&r&r&r&r&r&r&r&r&r&r&r&r&r&r&r&r&r&r&r&r&r&r&r&r&r&r&r&r&r&r&r&r&r&r&r&r&r&r&r&r&r&r&r&r&r&r&r&r&r&r&r&r&r&r&r&r&r&r&r&r&r&r&r&r&r&r&r&r&r&r&r&r&r&r&r&r&r&r&r&r&r&r&r&r&r&r&r&r&r&r&r&r&r&r&r&r&r&r&r&r&r&r&r&r&r&r&r&r&r&r&r&r&r&r&r&r&r&r&r&r&r&r&r&r&r&r&r&r&r&r&r&r&r&r&r&r&r&r&r&r&r&r&r&r&r&r&r&r&r&r&r&r&r&r&r&r&r&r&r&r&r&r&r&r&r&r&r&r&r&r&r&r&r&r&r&r&r&r&r&r&r&r&r&r&r&r&r&r&r&r&r&r&r&r&r&r&r&r&r&r&r&r&r&r&r&r&r&r&r&r&r&r&r&r&r&r&r&r&r&r&r&r&r&r&r&r&r&r&r&r&r&r&r&r&r&r&r&r&r&r&r&r&r&r&r&r&r&r&r&r&r&r&r&r&r&r&r&r&r&r&r&r&r&r&r&r&r&r&r&r&r&r&r&r&r&r&r&r&r&r&r&r&r&r&r&r&r&r&r&r&r&r&r&r&r&r&r&r&r&r&r&r&r&r&r&r&r&r&r&r&r&r&r&r&r&r&r&r&r&r&r&r&r&r&r&r&r&r&r&r&r&r&r&r&r&r&r&r&r&r&r&r&r&r&r&r&r&r&r&r&r&r&r&r&r&r&r&r&r&r&r&r&r&r&r&r&r&r&r&r&r&r&r&r&r&r&r&r&r&r&r&r&r&r&r&r&r&r&r&r&r&r&r&r&r&r&r&r&r&r&r&r&r&r&r&r&r&r&r&r&r&r&r&r&r&r&r&r&r&r&r&r&r&r&r&r&r&r&r&r&r&r&r&r&r&r&r&r&r&r&r&r&r&r&r&r&r&r&r&r&r&r&r&r&r&r&r&r&r&r&r&r&r&r&r&r&r&r&r&r&r&r&r&r&r&r&r&r&r&r&r&r&r&r&r&r&r&r&r&r&r&r&r&r&r&r&r&r&r&r&r&r&r&r&r&r&r&r&r&r&r&r&r&r&r&r&r&r&r&r&r&r&r&r&r&r&r&r&r&r&r&r&r&r&r&r&r&r&r&r&r&r&r&r&r&r&r&r&r&r&r&r&r&r&r&r&r&r&r&r&r&r&r&r&r&r&r&r&r&r&r&r&r&r&r&r&r&r&r&r&r&r&r&r&r&r&r&r&r&r&r&r&r&r&r&r&r&r&r&r&r&r&r&r&r&r&r&r&r&r&r&r&r&r&r&r&r&r&r&r&r&r&r&r&r&r&r&r&r&r&r&r&r&r&r&r&r&r&r&r&r&r&r&r&r&r&r&r&r&r&r&r&r&r&r&r&r&r&r&r&r&r&r&r&r&r&r&r&r&r&r&r&r&r&r&r&r&r&r&r&r&r&r&r&r&r&r&r&r&r&r&r&r&r&r&r&r&r&r&r&r&r&r&r&r&r&r&r&r&r&r&r&r&r&r&r&r&r&r&r&r&r&r&r&r&r&r&r&r&r&r&r&r&r&r&r&r&r&r&r&r&r&r&r&r&r&r&r&r&r&r&r&r&r&r&r&r&r&r&r&r&r&r&r&r&r&r&r&r&r&r&r&r&r&r&r&r&r&r&r&r&r&r&r&r&r&r&r&r&r&r&r&r&r&r&r&r&r&r&r&r&r&r&r&r&r&r&r&r&r&r&r&r&r&r&r&r&r&r&r&r&r&r&r&r&r&r&r&r&r&r&r&r&r&r&r&r&r&r&r&r&r&r&r&r&r&r&r&r&r&r&r&r
